<svg xmlns="http://www.w3.org/2000/svg" width="833" height="101" fill="none"><path fill="#60A4FA" d="M133.231 21.63c17.143 0 32.728 7.272 32.987 34.934l-.259 42.857h-22.208V65.525c0-16.234-2.728-24.675-18.572-24.675-11.688 0-23.117 5.584-29.87 11.688.13 1.299.13 2.598.13 4.026l-.26 42.857H72.972V65.525c0-16.234-2.728-24.675-18.572-24.675-12.857 0-25.325 6.623-31.688 13.506v45.065H.504V22.928h22.208v12.467c8.311-6.623 20.779-13.766 39.74-13.766 11.558 0 22.468 3.377 28.312 14.026 9.87-7.403 23.506-14.026 42.467-14.026ZM313.022 22.928h24.805L303.412 99.42h-29.611l-22.467-53.247-22.468 53.247h-29.61L164.84 22.928h24.806l25.065 59.09 23.376-59.09h26.494l23.376 58.96 25.065-58.96ZM385.588 82.668c15.325 0 24.676-2.857 30.26-10.65h22.078C432.861 91.5 413.9 100.72 385.588 100.72c-29.091 0-51.688-11.429-51.688-39.48 0-28.182 21.948-39.61 52.987-39.61 29.091 0 52.338 10 52.338 44.804h-82.598c2.468 12.208 14.156 16.234 28.961 16.234Zm1.169-44.156c-15.195 0-25.844 2.987-29.351 13.766h58.052c-3.766-10.779-14.675-13.766-28.701-13.766ZM497.322 82.668c15.325 0 24.675-2.857 30.26-10.65h22.078c-5.065 19.481-24.026 28.702-52.338 28.702-29.091 0-51.688-11.429-51.688-39.48 0-28.182 21.948-39.61 52.987-39.61 29.091 0 52.338 10 52.338 44.804h-82.598c2.468 12.208 14.156 16.234 28.961 16.234Zm1.169-44.156c-15.195 0-25.844 2.987-29.351 13.766h58.052c-3.766-10.779-14.675-13.766-28.701-13.766ZM631.25 41.5h-36.234v22.077c0 14.805 2.857 18.572 16.364 18.572 7.013 0 10.909 0 19.87-1.3v17.923c-7.403 1.299-15.844 1.948-26.104 1.948-19.74 0-32.468-7.403-32.468-24.286V41.5h-20.13V22.928h20.13V7.084L595.016.72v22.208h36.234v18.571ZM688.449 82.668c15.325 0 24.676-2.857 30.26-10.65h22.078c-5.065 19.481-24.026 28.702-52.338 28.702-29.091 0-51.688-11.429-51.688-39.48 0-28.182 21.948-39.61 52.987-39.61 29.091 0 52.338 10 52.338 44.804h-82.598c2.468 12.208 14.156 16.234 28.961 16.234Zm1.169-44.156c-15.195 0-25.844 2.987-29.35 13.766h58.051c-3.766-10.779-14.675-13.766-28.701-13.766ZM811.983 21.63c9.091 0 15.455 1.298 20.65 2.597v18.57c-7.273-1.817-13.117-2.596-19.611-2.596-12.467 0-26.753 2.857-40.26 13.376v45.844h-22.207V22.928h22.207v12.987c11.429-10.26 24.936-14.286 39.221-14.286Z"/></svg>